<?xml version="1.0" encoding="UTF-8"?>
<svg xmlns="http://www.w3.org/2000/svg" width="2400" height="1200">
<rect width="2400" height="1200" fill="#c4272f"/>
<rect width="800" height="1200" fill="#015197" x="800"/>
<g fill="#f9cf02">
<circle cx="400" cy="410" r="110"/>
<circle cx="400" cy="360" r="120" fill="#c4272f"/>
<circle cx="400" cy="380" r="80"/>
<path d="m 350,230c0,27.60778 22.3913,50 50,50 27.6094,0 50-22.39 50-50 0-20-12.5-22.5-12.5-30 0-7.5 7.5-17.5-7.5-30 7.5,12.5-5,15-5,27.5 0,12.5 5,12.5 5,22.5 0,5.52222-4.47756,10-10,10-5.52284,0-10-4.48-10-10 0-10 10-20 10-35 0-15-2.5-20-10-32.5-7.5-12.5-20-22.5-10-32.5-15,5-7.5,25-7.5,37.5 0,12.5-10,20-10,35 0,15 7.5,17.5 7.5,27.5 0,5.52222-4.47756,10-10,10-5.52283,0-10-4.48-10-10 0-10 5-10 5-22.5 0-12.5-12.5-15-5-27.5-15,12.5-7.5,22.5-7.5,30 0,7.5-12.5,10-12.5,30z"/>
<rect width="100" height="480" x="180" y="540"/>
<rect width="100" height="480" x="520" y="540"/>
<rect width="200" height="40" x="300" y="620"/>
<rect width="200" height="40" x="300" y="900"/>
<polygon points="300,540 400,600 500,540"/>
<polygon points="300,960 400,1020 500,960"/>
<g stroke="#c4272f" stroke-width="12">
<circle cx="400" cy="780" r="106"/>
<path fill="none" d="M400,674A53,53 0 0,1 400,780A53,53 0 0,0 400,886"/></g>
<circle cx="400" cy="727" r="20" fill="#c4272f"/>
<circle cx="400" cy="833" r="20" fill="#c4272f"/></g></svg>